Coordinates
version=1
nRows=27
nColumns=12
inDegrees=yes

Units are S.I. units (second, meters, Newtons, ...)
Angles are in degrees

endheader
time	SC_y	SC_z	SC_x	AC_y	AC_z	AC_x	GH_y	GH_z	GH_yy	EL_x	PS_y
       0.0              -32.66          30.71          69.61          51.56          -14.9          5.344         -15.77          42.76         -39.97          111.6          56.66
   0.03238              -32.66          30.71          69.61          51.56         -14.89          5.343         -15.75          42.75         -39.94          111.6          56.66
   0.06477              -32.66          30.71           69.6          51.56         -14.89          5.342         -15.73          42.74         -39.91          111.6          56.66
   0.09715              -32.66          30.71           69.6          51.56         -14.89           5.34         -15.71          42.74         -39.88          111.6          56.66
    0.1295              -32.66          30.72          69.59          51.56         -14.89          5.339         -15.68          42.73         -39.84          111.6          56.66
    0.1619              -32.67          30.72          69.59          51.56         -14.88          5.338         -15.66          42.72          -39.8          111.6          56.65
    0.1943              -32.67          30.72          69.58          51.56         -14.88          5.336         -15.63          42.71         -39.76          111.6          56.65
    0.2267              -32.67          30.72          69.58          51.56         -14.88          5.335          -15.6           42.7         -39.71          111.5          56.65
    0.2591              -32.67          30.72          69.57          51.56         -14.87          5.333         -15.56          42.68         -39.66          111.5          56.65
    0.2914              -32.67          30.72          69.56          51.56         -14.87          5.331         -15.53          42.67         -39.61          111.5          56.65
    0.3238              -32.67          30.73          69.55          51.56         -14.86          5.329         -15.49          42.66         -39.55          111.5          56.65
    0.3562              -32.68          30.73          69.55          51.56         -14.86          5.327         -15.45          42.64         -39.49          111.5          56.64
    0.3886              -32.68          30.73          69.54          51.56         -14.85          5.325         -15.41          42.63         -39.43          111.5          56.64
     0.421              -32.68          30.73          69.53          51.56         -14.84          5.323         -15.36          42.61         -39.36          111.5          56.64
    0.4534              -32.69          30.74          69.52          51.56         -14.84           5.32         -15.31          42.59         -39.28          111.5          56.64
    0.4857              -32.69          30.74          69.51          51.56         -14.83          5.317         -15.25          42.57          -39.2          111.5          56.63
    0.5181              -32.69          30.74           69.5          51.56         -14.82          5.314         -15.19          42.55         -39.11          111.5          56.63
    0.5505               -32.7          30.75          69.48          51.56         -14.82          5.311         -15.13          42.53         -39.01          111.4          56.63
    0.5829               -32.7          30.75          69.47          51.56         -14.81          5.307         -15.06           42.5         -38.91          111.4          56.62
    0.6153               -32.7          30.76          69.46          51.56          -14.8          5.303         -14.98          42.48         -38.79          111.4          56.62
    0.6477              -32.71          30.76          69.44          51.56         -14.79          5.299         -14.89          42.44         -38.66          111.4          56.62
      0.68              -32.71          30.77          69.42          51.56         -14.77          5.294          -14.8          42.41         -38.52          111.4          56.61
    0.7124              -32.72          30.77           69.4          51.56         -14.76          5.289         -14.69          42.37         -38.37          111.3          56.61
    0.7448              -32.73          30.78          69.38          51.55         -14.74          5.283         -14.57          42.33         -38.19          111.3           56.6
    0.7772              -32.74          30.79          69.35          51.55         -14.73          5.276         -14.44          42.29          -38.0          111.3           56.6
    0.8096              -32.74           30.8          69.33          51.55         -14.71          5.269          -14.3          42.23         -37.79          111.3          56.59
    0.8419              -32.75          30.81          69.29          51.55         -14.69          5.261         -14.14          42.18         -37.55          111.2          56.58
